<svg xmlns="http://www.w3.org/2000/svg" width="394" height="255" viewBox="0 0 394 255"><defs><style>.a{fill:#f7bf53;}.b,.c{fill:#fff;}.b{font-size:16px;font-family:Bahnschrift;font-weight:700;}</style></defs><g transform="translate(-1019 -689)"><g transform="translate(1019 689)"><rect class="a" width="394" height="255" rx="33"/><text class="b" transform="translate(195 163)"><tspan x="-103.418" y="0">Verify your account to accept</tspan><tspan x="-90.922" y="22">payments from overseas </tspan><tspan x="-38.156" y="44">customers</tspan></text><g transform="translate(156.121 32.753)"><path class="c" d="M78.471,101.441h-29.4a3.611,3.611,0,0,1-3.607-3.607V87.013H3.607A3.611,3.611,0,0,1,0,83.406V44.29a1.2,1.2,0,1,1,2.4,0V79.8H41.855a1.2,1.2,0,0,1,0,2.4H2.4v1.2a1.2,1.2,0,0,0,1.2,1.2H45.462v-18.6h-34.9a3.611,3.611,0,0,1-3.607-3.607V51.5A3.611,3.611,0,0,1,10.566,47.9H41.855a1.2,1.2,0,0,1,0,2.4H10.566a1.2,1.2,0,0,0-1.2,1.2v10.9a1.2,1.2,0,0,0,1.2,1.2h34.9V46.7a3.611,3.611,0,0,1,3.607-3.607H70.055v-2.4H1.2a1.2,1.2,0,0,1-1.2-1.2V32.107A3.611,3.611,0,0,1,3.607,28.5H56.669a1.2,1.2,0,0,1,0,2.4H3.607a1.2,1.2,0,0,0-1.2,1.2v6.172h72.46V32.107a1.2,1.2,0,0,0-1.2-1.2H61.479a1.2,1.2,0,1,1,0-2.4H73.662a3.611,3.611,0,0,1,3.607,3.607V43.088h1.2A3.611,3.611,0,0,1,82.078,46.7V97.834A3.611,3.611,0,0,1,78.471,101.441Zm-30.6-4.809v1.2a1.2,1.2,0,0,0,1.2,1.2h29.4a1.2,1.2,0,0,0,1.2-1.2v-1.2Zm0-2.4H79.674V50.3H47.867Zm0-46.329H79.674V46.7a1.2,1.2,0,0,0-1.2-1.2h-29.4a1.2,1.2,0,0,0-1.2,1.2ZM72.46,43.088h2.4v-2.4h-2.4ZM63.77,87.013a13.5,13.5,0,1,1,7.2-24.917,1.2,1.2,0,1,1-1.285,2.033,11.079,11.079,0,1,0,3.979,4.365l-10,10a1.2,1.2,0,0,1-1.7,0l-5.887-5.887a1.2,1.2,0,0,1,1.7-1.7l5.037,5.037,10.23-10.23.021-.021,2.15-2.15a1.2,1.2,0,0,1,1.7,1.7l-1.479,1.479A13.5,13.5,0,0,1,63.77,87.013ZM37.484,75.855a1.2,1.2,0,0,1-.85-2.052l.577-.577H23.072a1.2,1.2,0,1,1,0-2.4H37.21l-.577-.577a1.2,1.2,0,1,1,1.7-1.7l2.629,2.629a1.2,1.2,0,0,1,0,1.7L38.334,75.5a1.2,1.2,0,0,1-.85.352Zm1.151-14.323a1.2,1.2,0,0,1-1.2-1.2V59.038l-1.119.646a1.2,1.2,0,0,1-1.2-2.082l1.119-.647-1.119-.646a1.2,1.2,0,0,1,1.2-2.082l1.119.646V53.58a1.2,1.2,0,1,1,2.4,0v1.293l1.119-.646a1.2,1.2,0,0,1,1.2,2.082l-1.119.646,1.119.646a1.2,1.2,0,0,1-1.2,2.082l-1.119-.646V60.33A1.2,1.2,0,0,1,38.635,61.533Zm-11.222,0a1.2,1.2,0,0,1-1.2-1.2V59.038l-1.119.646a1.2,1.2,0,0,1-1.2-2.082l1.119-.647-1.119-.646a1.2,1.2,0,0,1,1.2-2.082l1.119.646V53.58a1.2,1.2,0,1,1,2.4,0v1.293l1.119-.646a1.2,1.2,0,0,1,1.2,2.082l-1.119.646,1.119.646a1.2,1.2,0,0,1-1.2,2.082l-1.119-.646V60.33A1.2,1.2,0,0,1,27.413,61.533Zm-11.222,0a1.2,1.2,0,0,1-1.2-1.2V59.038l-1.119.646a1.2,1.2,0,0,1-1.2-2.082l1.119-.647-1.119-.646a1.2,1.2,0,0,1,1.2-2.082l1.119.646V53.58a1.2,1.2,0,1,1,2.4,0v1.293l1.119-.646a1.2,1.2,0,0,1,1.2,2.082l-1.119.646,1.119.646a1.2,1.2,0,1,1-1.2,2.082l-1.119-.646V60.33A1.2,1.2,0,0,1,16.191,61.533ZM71.177,35.874a1.282,1.282,0,1,1,1.282-1.282A1.284,1.284,0,0,1,71.177,35.874Zm-4.809,0a1.282,1.282,0,1,1,1.282-1.282A1.284,1.284,0,0,1,66.368,35.874Zm-4.809,0a1.282,1.282,0,1,1,1.282-1.282A1.284,1.284,0,0,1,61.559,35.874Z" transform="translate(0 -28.5)"/></g></g></g></svg>