<svg xmlns="http://www.w3.org/2000/svg" width="48" height="48" viewBox="0 0 48 48"><defs><style>.a{opacity:0.35;}.b{fill:#fff;stroke:#707070;}.c{stroke:none;}.d{fill:none;}</style></defs><g class="a" transform="translate(-392 -645)"><g transform="translate(-2713 -663)"><g class="b" transform="translate(3105 1308)"><circle class="c" cx="24" cy="24" r="24"/><circle class="d" cx="24" cy="24" r="23.5"/></g></g><g transform="translate(367.664 654.505)"><g transform="translate(47.595)"><path d="M252.62,0a5.864,5.864,0,0,0-3.8,2.055,5.094,5.094,0,0,0-1.243,3.958,4.95,4.95,0,0,0,3.831-1.957A5.5,5.5,0,0,0,252.62,0Z" transform="translate(-247.522)"/></g><g transform="translate(37.336 5.849)"><path d="M57.959,122.375a6.326,6.326,0,0,0-4.775-2.535c-2.241,0-3.189,1.073-4.747,1.073-1.606,0-2.825-1.07-4.764-1.07A6.482,6.482,0,0,0,38.457,123c-1.807,2.8-1.5,8.07,1.431,12.558,1.048,1.606,2.448,3.411,4.278,3.427,1.629.016,2.088-1.045,4.3-1.056s2.626,1.07,4.252,1.053c1.832-.014,3.308-2.015,4.356-3.62a18.005,18.005,0,0,0,1.613-3.03A5.51,5.51,0,0,1,57.959,122.375Z" transform="translate(-37.336 -119.84)"/></g></g></g></svg>