<svg xmlns="http://www.w3.org/2000/svg" width="50" height="50" viewBox="0 0 50 50"><defs><style>.a{fill:#0070ba;}.b{fill:#fff;}</style></defs><circle class="a" cx="25" cy="25" r="25"/><g transform="translate(13.835 10.469)"><path class="b" d="M183.566,9.373a.487.487,0,0,0,.821,0l3.2-5.012a.487.487,0,0,0-.411-.75h-1.264V.487A.487.487,0,0,0,185.428,0h-2.9a.487.487,0,0,0-.487.487V3.611h-1.264a.487.487,0,0,0-.411.75Zm-1.04-4.787a.487.487,0,0,0,.487-.487V.975h1.927V4.1a.487.487,0,0,0,.487.487h.862l-2.313,3.619-2.313-3.619h.862Z" transform="matrix(-1, -0.017, 0.017, -1, 195.193, 12.808)"/><path class="b" d="M44.663,230.741H25.141a1.569,1.569,0,0,0-1.567,1.567v10.574a1.569,1.569,0,0,0,1.567,1.567H44.663a1.569,1.569,0,0,0,1.567-1.567V232.308A1.569,1.569,0,0,0,44.663,230.741Zm.592,12.141a.593.593,0,0,1-.592.592H25.141a.593.593,0,0,1-.592-.592V232.308a.593.593,0,0,1,.592-.592H44.663a.593.593,0,0,1,.592.592Z" transform="translate(-23.574 -219.495)"/><path class="b" d="M89.427,280.6a1.206,1.206,0,0,1-1.21-1.2c0-.023,0-.046,0-.068a.487.487,0,0,0-.487-.515H74.158a.487.487,0,0,0-.487.515q0,.034,0,.069a1.206,1.206,0,0,1-1.21,1.2.487.487,0,0,0-.487.487v4.579a.487.487,0,0,0,.487.487,1.206,1.206,0,0,1,1.21,1.2.487.487,0,0,0,.487.487H87.729a.487.487,0,0,0,.487-.487,1.206,1.206,0,0,1,1.21-1.2.487.487,0,0,0,.487-.487v-4.579A.487.487,0,0,0,89.427,280.6Zm-.487,4.634a2.187,2.187,0,0,0-1.642,1.632h-12.7a2.187,2.187,0,0,0-1.642-1.632v-3.713a2.185,2.185,0,0,0,1.662-1.727H87.277a2.185,2.185,0,0,0,1.662,1.727Z" transform="translate(-69.617 -265.227)"/><path class="b" d="M199.818,312.311a2.879,2.879,0,1,0,2.878,2.878A2.882,2.882,0,0,0,199.818,312.311Zm0,4.782a1.9,1.9,0,1,1,1.9-1.9A1.906,1.906,0,0,1,199.818,317.093Z" transform="translate(-188.49 -297.089)"/></g></svg>