<svg xmlns="http://www.w3.org/2000/svg" width="186" height="57" viewBox="0 0 186 57"><defs><style>.a{fill:#fff;stroke:#707070;}.b{fill:#0c1a4a;font-size:10px;font-family:SegoeUI-Bold, Segoe UI;font-weight:700;}.c{font-size:13px;}.d{stroke:none;}.e{fill:none;}</style></defs><g transform="translate(-10492 -2061)"><g class="a" transform="translate(10492 2061)"><rect class="d" width="186" height="57" rx="13"/><rect class="e" x="0.5" y="0.5" width="185" height="56" rx="12.5"/></g><g transform="translate(10489.664 2074.005)"><g transform="translate(48.007)"><path d="M252.825,0a6.1,6.1,0,0,0-3.95,2.138,5.3,5.3,0,0,0-1.293,4.117,5.149,5.149,0,0,0,3.985-2.036A5.719,5.719,0,0,0,252.825,0Z" transform="translate(-247.522)"/></g><g transform="translate(37.336 6.084)"><path d="M58.788,122.477a6.58,6.58,0,0,0-4.967-2.637c-2.331,0-3.318,1.116-4.937,1.116-1.67,0-2.939-1.113-4.955-1.113a6.743,6.743,0,0,0-5.426,3.28c-1.88,2.915-1.558,8.395,1.488,13.063,1.09,1.67,2.546,3.548,4.45,3.565,1.695.016,2.172-1.087,4.468-1.1s2.731,1.113,4.422,1.1c1.906-.015,3.441-2.1,4.531-3.766a18.729,18.729,0,0,0,1.678-3.152A5.731,5.731,0,0,1,58.788,122.477Z" transform="translate(-37.336 -119.84)"/></g></g><text class="b" transform="translate(10564 2082)"><tspan x="0" y="0">Available on the</tspan><tspan class="c"><tspan x="0" y="17">App Store</tspan></tspan></text></g></svg>