<svg xmlns="http://www.w3.org/2000/svg" width="418" height="284" viewBox="0 0 418 284"><defs><style>.a{opacity:0.27;}.b{fill:#1861d1;}.c{fill:#89a5f8;}.d{fill:#fff;}.e{fill:#f7bf53;}.f{fill:#4faf93;}.g{fill:#38416d;}.h,.i,.j{fill:#c2c9ff;font-family:Roboto-Regular, Roboto;}.h{font-size:13px;}.i{font-size:12px;}.j{font-size:11px;}</style></defs><g transform="translate(-564 -671)"><g class="a" transform="translate(605.126 729.439)"><rect class="b" width="377" height="226" rx="29" transform="translate(-0.127 -0.439)"/></g><g class="a" transform="translate(585.126 688.885)"><rect class="b" width="377" height="244" rx="29" transform="translate(-0.127 0.115)"/></g><g transform="translate(564 671)"><rect class="b" width="377.371" height="224.169" rx="29" transform="translate(0 6.683)"/><g transform="translate(31.541 35.972)"><circle class="c" cx="21.966" cy="21.966" r="21.966" transform="translate(31.541 0)"/><ellipse class="d" cx="21.403" cy="21.966" rx="21.403" ry="21.966" transform="translate(0 0)"/></g><ellipse class="e" cx="29.288" cy="29.852" rx="29.288" ry="29.852" transform="translate(319.92 172.276)"/><path class="e" d="M21.035,0S48.961,21.683,48.961,35.2s-24,34.676-24,34.676S0,48.723,0,35.2,21.035,0,21.035,0Z" transform="matrix(0.829, -0.559, 0.559, 0.829, 246.415, 120.322)"/><path class="f" d="M21.035,0S48.961,21.683,48.961,35.2s-24,34.676-24,34.676S0,48.723,0,35.2,21.035,0,21.035,0Z" transform="translate(311.913 50.621) rotate(60)"/><path class="c" d="M21.035,0S48.961,21.683,48.961,35.2s-24,34.676-24,34.676S0,48.723,0,35.2,21.035,0,21.035,0Z" transform="matrix(-0.799, 0.602, -0.602, -0.799, 339.571, 55.808)"/><rect class="g" width="42.965" height="39.595" rx="8" transform="translate(345.171 63.856) rotate(42)"/><text class="h" transform="translate(31.541 123.193)"><tspan x="0" y="0">Business Card</tspan></text><text class="i" transform="translate(31.541 155.987)"><tspan x="0" y="0">VALID UNTIL 12/2022</tspan></text><g transform="matrix(0.017, 1, -1, 0.017, 53.215, 190.453)"><g transform="translate(0 6.214)"><g transform="translate(0 0)"><circle class="d" cx="1.776" cy="1.776" r="1.776"/></g></g><g transform="translate(0.108 0)"><g transform="translate(0 0)"><circle class="d" cx="1.776" cy="1.776" r="1.776"/></g></g><g transform="translate(0 12.43)"><circle class="d" cx="1.776" cy="1.776" r="1.776"/></g><g transform="translate(0 18.645)"><circle class="d" cx="1.776" cy="1.776" r="1.776"/></g></g><g transform="matrix(0.017, 1, -1, 0.017, 94.918, 190.453)"><g transform="translate(0 6.214)"><g transform="translate(0 0)"><circle class="d" cx="1.776" cy="1.776" r="1.776"/></g></g><g transform="translate(0.108 0)"><g transform="translate(0 0)"><circle class="d" cx="1.776" cy="1.776" r="1.776"/></g></g><g transform="translate(0 12.43)"><circle class="d" cx="1.776" cy="1.776" r="1.776"/></g><g transform="translate(0 18.645)"><circle class="d" cx="1.776" cy="1.776" r="1.776"/></g></g><g transform="matrix(0.017, 1, -1, 0.017, 136.622, 190.453)"><g transform="translate(0 6.214)"><g transform="translate(0 0)"><circle class="d" cx="1.776" cy="1.776" r="1.776"/></g></g><g transform="translate(0.108 0)"><g transform="translate(0 0)"><circle class="d" cx="1.776" cy="1.776" r="1.776"/></g></g><g transform="translate(0 12.43)"><circle class="d" cx="1.776" cy="1.776" r="1.776"/></g><g transform="translate(0 18.645)"><circle class="d" cx="1.776" cy="1.776" r="1.776"/></g></g><text class="j" transform="translate(155.454 194.414)"><tspan x="0" y="0">1288</tspan></text></g></g></svg>