<svg xmlns="http://www.w3.org/2000/svg" width="26.477" height="26.477" viewBox="0 0 26.477 26.477"><defs><style>.a{fill:#0c1a4a;}</style></defs><g transform="translate(6.619 12.687)"><path class="a" d="M142.341,245.333v12.135a.552.552,0,0,1-.552.552H129.655a.552.552,0,0,1-.552-.552V251.4H128v6.068a1.655,1.655,0,0,0,1.655,1.655H141.79a1.655,1.655,0,0,0,1.655-1.655V245.333Z" transform="translate(-128 -245.333)"/></g><g transform="translate(1.655 14.893)"><path class="a" d="M40.826,288H35.861A3.866,3.866,0,0,0,32,291.861h1.1a2.761,2.761,0,0,1,2.758-2.758h4.964a1.1,1.1,0,0,1,0,2.206H35.861v1.1h4.964a2.206,2.206,0,0,0,0-4.413Z" transform="translate(-32 -288)"/></g><g transform="translate(0 16.548)"><path class="a" d="M.552,320a.552.552,0,0,0-.552.552v.552H2.758V320Z" transform="translate(0 -320)"/></g><g transform="translate(1.655 21.512)"><path class="a" d="M35.861,418.758A2.761,2.761,0,0,1,33.1,416H32a3.866,3.866,0,0,0,3.861,3.861h1.655v-1.1H35.861Z" transform="translate(-32 -416)"/></g><g transform="translate(0 22.615)"><path class="a" d="M0,437.333v.552a.552.552,0,0,0,.552.552H2.758v-1.1H0Z" transform="translate(0 -437.333)"/></g><g transform="translate(14.893 1.103)"><path class="a" d="M294.067,21.333h-3.861a2.206,2.206,0,0,0,0,4.413h4.964v-1.1h-4.964a1.1,1.1,0,0,1,0-2.206h3.861a2.761,2.761,0,0,1,2.758,2.758h1.1A3.866,3.866,0,0,0,294.067,21.333Z" transform="translate(-288 -21.333)"/></g><g transform="translate(23.718 2.758)"><path class="a" d="M460.872,53.333h-2.206v1.1h2.758v-.552A.552.552,0,0,0,460.872,53.333Z" transform="translate(-458.666 -53.333)"/></g><g transform="translate(17.099 7.722)"><path class="a" d="M337.286,149.333a2.761,2.761,0,0,1-2.758,2.758h-3.861v1.1h3.861a3.866,3.866,0,0,0,3.861-3.861Z" transform="translate(-330.667 -149.333)"/></g><g transform="translate(23.719 8.825)"><path class="a" d="M458.667,170.666v1.1h2.206a.552.552,0,0,0,.552-.552v-.552h-2.758Z" transform="translate(-458.667 -170.666)"/></g><g transform="translate(6.62 0)"><g transform="translate(0 0)"><path class="a" d="M141.01,4.813l-1.061.3a5.5,5.5,0,1,1-2.3-3.119l.6-.924a6.618,6.618,0,1,0,2.76,3.743Z" transform="translate(-128.023 0)"/></g></g><g transform="translate(10.48 3.861)"><path class="a" d="M204.322,75.77h2.206v-1.1h-2.206a1.655,1.655,0,1,0,0,3.31h2.206v-1.1h-2.206a.552.552,0,1,1,0-1.1Z" transform="translate(-202.667 -74.667)"/></g><g transform="translate(10.48 6.068)"><path class="a" d="M206.527,117.333h-2.206v1.1h2.206a.552.552,0,1,1,0,1.1h-2.206a.552.552,0,0,1-.552-.552h-1.1a1.655,1.655,0,0,0,1.655,1.655h2.206a1.655,1.655,0,0,0,0-3.31Z" transform="translate(-202.666 -117.333)"/></g><g transform="translate(12.687 8.826)"><rect class="a" width="1.103" height="1.655"/></g><g transform="translate(12.687 2.758)"><rect class="a" width="1.103" height="1.655"/></g><g transform="translate(6.619 11.583)"><path class="a" d="M129.655,224A1.655,1.655,0,0,0,128,225.655v2.206h1.1v-2.206a.552.552,0,0,1,.552-.552h2.206V224Z" transform="translate(-128 -224)"/></g><g transform="translate(9.377 12.135)"><rect class="a" width="1.103" height="3.31"/></g><g transform="translate(12.135 12.687)"><path class="a" d="M235.77,245.333v3.861h-1.1v1.1h1.655a.552.552,0,0,0,.552-.552v-4.413Z" transform="translate(-234.667 -245.333)"/></g><g transform="translate(16.548 23.167)"><rect class="a" width="3.31" height="1.103"/></g><g transform="translate(16.548 20.961)"><rect class="a" width="3.31" height="1.103"/></g></svg>