<svg xmlns="http://www.w3.org/2000/svg" width="26.076" height="26.049" viewBox="0 0 26.076 26.049"><defs><style>.a{fill:#0c1a4a;}</style></defs><g transform="translate(0 -0.243)"><g transform="translate(0 0.243)"><g transform="translate(0 0)"><path class="a" d="M25.894,9.6,22.981,2.023A2.779,2.779,0,0,0,19.388.429l-.062.025L4.768,6.489a2.766,2.766,0,0,0-1.537,3.539l.4,1.068H2.714A2.717,2.717,0,0,0,0,13.81v9.769a2.717,2.717,0,0,0,2.714,2.714H21.165a2.717,2.717,0,0,0,2.714-2.714V13.81a2.668,2.668,0,0,0-.039-.439l.5-.2A2.789,2.789,0,0,0,25.894,9.6ZM2.714,11.965H21.165A1.843,1.843,0,0,1,23,13.7H.879A1.843,1.843,0,0,1,2.714,11.965ZM7.077,9.349,9.979,7.9l.6,1.492-2.9,1.451ZM23.011,23.579a1.847,1.847,0,0,1-1.845,1.845H2.714A1.847,1.847,0,0,1,.868,23.579V18.043H23.011Zm0-6.4H.868v-2.6H23.011Zm1.008-4.811-.454.184a2.715,2.715,0,0,0-2.4-1.451H9.105l2.216-1.108a.434.434,0,0,0,.209-.55l-.921-2.3a.434.434,0,0,0-.564-.242l-.033.015L6.331,8.752a.434.434,0,0,0-.209.55L6.841,11.1H4.559L4.045,9.725A1.9,1.9,0,0,1,5.1,7.294L19.658,1.259a1.908,1.908,0,0,1,2.493,1.031l.018.046,2.913,7.574A1.917,1.917,0,0,1,24.018,12.364Z" transform="translate(0 -0.243)"/><path class="a" d="M265.176,357.087a2.6,2.6,0,1,0-.944-3.561A2.605,2.605,0,0,0,265.176,357.087Zm3.343-3.883a1.737,1.737,0,1,1,0,3.261A2.6,2.6,0,0,0,268.519,353.2Zm-.726.494a1.7,1.7,0,0,1,0,2.273A1.7,1.7,0,0,1,267.793,353.7Zm-1.3-.6a1.719,1.719,0,0,1,.577.106,2.6,2.6,0,0,0,0,3.261,1.734,1.734,0,1,1-.577-3.367Z" transform="translate(-249.558 -333.127)"/><rect class="a" width="0.868" height="4.533" transform="translate(18.667 9.754) rotate(-113.966)"/><rect class="a" width="6.589" height="0.868" transform="matrix(0.908, -0.419, 0.419, 0.908, 15.549, 8.042)"/></g></g></g></svg>