<svg xmlns="http://www.w3.org/2000/svg" width="10" height="10" viewBox="0 0 14 14"><defs><style>.a{fill:#0070ba;}</style></defs><g transform="translate(-0.063 1.133) rotate(-5)"><path class="a" d="M.474,12.922a.411.411,0,0,1-.4-.51l.771-3.1a.412.412,0,0,1,.108-.191L9.639.44a1.509,1.509,0,0,1,2.131,0l.775.775a1.509,1.509,0,0,1,0,2.131L3.861,12.03a.408.408,0,0,1-.191.108l-3.1.771a.38.38,0,0,1-.1.013Zm1.142-3.3-.579,2.322,2.322-.579,8.6-8.6a.686.686,0,0,0,0-.969l-.775-.775a.686.686,0,0,0-.969,0ZM3.57,11.739h0Zm0,0" transform="translate(0 0)"/><path class="a" d="M318.909,67.643a.408.408,0,0,1-.29-.12L316.294,65.2a.411.411,0,0,1,.581-.581l2.325,2.325a.411.411,0,0,1-.291.7Zm0,0" transform="translate(-307.991 -62.841)"/><path class="a" d="M32.829,353.7a.407.407,0,0,1-.29-.121l-2.325-2.325a.411.411,0,0,1,.581-.581L33.12,353a.411.411,0,0,1-.291.7Zm0,0" transform="translate(-29.259 -341.552)"/></g></svg>