<svg xmlns="http://www.w3.org/2000/svg" width="48" height="48" viewBox="0 0 48 48"><defs><style>.a{opacity:0.35;}.b{fill:#fff;}.b,.c,.d,.e,.f{stroke:#707070;}.c{fill:#fbbb00;}.d{fill:#518ef8;}.e{fill:#28b446;}.f{fill:#f14336;}.g{stroke:none;}.h{fill:none;}</style></defs><g class="a" transform="translate(-2973 -1308)"><g class="b" transform="translate(2973 1308)"><circle class="g" cx="24" cy="24" r="24"/><circle class="h" cx="24" cy="24" r="23.5"/></g><g transform="translate(2985.068 1319.718)"><path class="c" d="M5.289,146.245l-.831,3.1-3.036.064a11.953,11.953,0,0,1-.088-11.142h0l2.7.5,1.184,2.687a7.121,7.121,0,0,0,.067,4.794Z" transform="translate(0 -131.823)"/><path class="d" d="M273.089,208.176a11.927,11.927,0,0,1-4.253,11.534h0l-3.4-.174-.482-3.008a7.111,7.111,0,0,0,3.06-3.631h-6.38v-4.72h11.461Z" transform="translate(-249.434 -198.473)"/><path class="e" d="M48.488,316.224h0a11.936,11.936,0,0,1-17.98-3.65l3.867-3.165A7.1,7.1,0,0,0,44.6,313.042Z" transform="translate(-29.087 -294.988)"/><path class="f" d="M46.838,2.747,42.972,5.912A7.1,7.1,0,0,0,32.512,9.627L28.625,6.445h0a11.934,11.934,0,0,1,18.214-3.7Z" transform="translate(-27.29)"/></g></g></svg>