<svg xmlns="http://www.w3.org/2000/svg" width="186" height="57" viewBox="0 0 186 57"><defs><style>.a{fill:#fff;stroke:#707070;}.b{fill:#0c1a4a;font-size:10px;font-family:SegoeUI-Bold, Segoe UI;font-weight:700;}.c{font-size:12px;}.d{fill:#32bbff;}.e{fill:#2c9fd9;}.f{fill:#29cc5e;}.g{fill:#d93f21;}.h{fill:#ffd500;}.i{fill:#fa0;}.j{stroke:none;}.k{fill:none;}</style></defs><g transform="translate(-10695 -2061)"><g transform="translate(203)"><g class="a" transform="translate(10492 2061)"><rect class="j" width="186" height="57" rx="13"/><rect class="k" x="0.5" y="0.5" width="185" height="56" rx="12.5"/></g><text class="b" transform="translate(10564 2085)"><tspan x="0" y="0">Available on the</tspan><tspan class="c"><tspan x="0" y="16">Google Play Store</tspan></tspan></text></g><g transform="translate(10706.451 2075.279)"><g transform="translate(23.549 0.001)"><path class="d" d="M66.538,9.767c-3.3-1.848-8.607-4.815-16.832-9.421A1.983,1.983,0,0,0,47.962.119L62.074,14.231Z" transform="translate(-46.606 -0.012)"/><path class="d" d="M24.905,1.93a2.028,2.028,0,0,0-.3.128,1.984,1.984,0,0,0-1.056,1.764v24.44a1.984,1.984,0,0,0,1.056,1.764,2.053,2.053,0,0,0,.3.129L39.017,16.042Z" transform="translate(-23.549 -1.823)"/><path class="d" d="M62.069,255.98,47.956,270.093a1.962,1.962,0,0,0,1.744-.228c7.977-4.467,13.22-7.4,16.562-9.263l.274-.154Z" transform="translate(-46.6 -241.761)"/></g><path class="e" d="M23.549,255.98V268.2a1.984,1.984,0,0,0,1.056,1.764,2.053,2.053,0,0,0,.3.129L39.017,255.98Z" transform="translate(0 -241.76)"/><path class="f" d="M44.6.335a1.99,1.99,0,0,0-2.044-.1l14.2,14.2,4.678-4.678C58.133,7.908,52.83,4.94,44.6.335Z" transform="translate(-17.956 0)"/><path class="g" d="M56.759,252.126l-14.2,14.2a1.976,1.976,0,0,0,2.044-.1c7.977-4.467,13.22-7.4,16.562-9.263l.274-.154Z" transform="translate(-17.956 -238.12)"/><path class="h" d="M305.088,177.474a1.979,1.979,0,0,0-1.019-1.739s-1.266-.707-5.148-2.878l-4.617,4.617,4.622,4.622c3.839-2.156,5.144-2.883,5.144-2.883A1.979,1.979,0,0,0,305.088,177.474Z" transform="translate(-255.714 -163.255)"/><path class="i" d="M304.069,257.719a1.979,1.979,0,0,0,1.019-1.739H294.3l4.622,4.622C302.764,258.446,304.069,257.719,304.069,257.719Z" transform="translate(-255.714 -241.76)"/></g></g></svg>