<svg xmlns="http://www.w3.org/2000/svg" width="26.604" height="26.604" viewBox="0 0 26.604 26.604"><defs><style>.a{fill:#0c1a4a;}</style></defs><path class="a" d="M223.043,343.22a1.395,1.395,0,0,0,0,2.789,1.395,1.395,0,1,0,0-2.789Z" transform="translate(-210.149 -325.386)"/><path class="a" d="M187.59,140c-2.445,0-3.568,1.449-3.568,2.427a1.039,1.039,0,0,0,1.087,1.032c.978,0,.58-1.395,2.427-1.395.906,0,1.63.4,1.63,1.232,0,.978-1.014,1.54-1.612,2.047a3.315,3.315,0,0,0-1.213,2.753c0,.942.253,1.214,1,1.214.887,0,1.069-.4,1.069-.743a2.275,2.275,0,0,1,1.014-2.264c.489-.38,2.029-1.612,2.029-3.314S189.908,140,187.59,140Z" transform="translate(-174.46 -132.728)"/><path class="a" d="M13.3,0A13.3,13.3,0,0,0,0,13.3V25.564A1.039,1.039,0,0,0,1.039,26.6H13.3A13.3,13.3,0,0,0,13.3,0Zm0,24.525H2.078V13.3A11.223,11.223,0,1,1,13.3,24.525Z"/></svg>