<svg xmlns="http://www.w3.org/2000/svg" width="28.707" height="26.793" viewBox="0 0 28.707 26.793"><defs><style>.a{fill:#0c1a4a;}</style></defs><g transform="translate(-16 -32)"><path class="a" d="M16.478,171.616h15.31a.478.478,0,0,0,.478-.478V169.9a2.1,2.1,0,0,0-.619-1.493l-.338-.338v-7.457a4.79,4.79,0,0,0-4.559-4.779l.164-.409a7.9,7.9,0,0,0,.567-2.946A.478.478,0,0,0,27,152H21.263a.478.478,0,0,0-.478.478,7.9,7.9,0,0,0,.567,2.946l.164.409a4.79,4.79,0,0,0-4.559,4.779v6.979a1.147,1.147,0,0,1-.338.817A2.1,2.1,0,0,0,16,169.9v1.237a.478.478,0,0,0,.478.478Zm10.031-18.66a6.939,6.939,0,0,1-.483,2.112l-.3.759h-3.18l-.3-.759a6.939,6.939,0,0,1-.483-2.112ZM16.957,169.9a1.147,1.147,0,0,1,.338-.817,2.1,2.1,0,0,0,.619-1.493v-6.979a3.832,3.832,0,0,1,3.828-3.828h4.785a3.832,3.832,0,0,1,3.828,3.828v7.177H28.44v.957h2.194l.338.338a1.147,1.147,0,0,1,.338.817v.759H16.957Z" transform="translate(0 -112.823)"/><path class="a" d="M114.175,291.349h-.957a.718.718,0,1,1,0-1.435h1.914v-.957h-.957V288h-.957v.957a1.675,1.675,0,1,0,0,3.349h.957a.718.718,0,1,1,0,1.435h-2.392v.957h1.435v.762h.957V294.7a1.675,1.675,0,0,0,0-3.349Z" transform="translate(-89.83 -240.69)"/><path class="a" d="M232.267,46.354h-1.914V41.569h.957a.478.478,0,0,0,.478-.478V35.349a.478.478,0,0,0-.478-.478h0a2.38,2.38,0,0,0,.48-1.435v-.957A.478.478,0,0,0,231.31,32h-3.828a.478.478,0,0,0-.478.478v.957a1.437,1.437,0,0,1-1.435,1.435h-7.655a.478.478,0,0,0-.478.478v5.263h-.957a.478.478,0,0,0-.478.478v1.435h.957v-.957h3.828v.957h-2.871v.957h2.871v.957h-1.435V45.4h1.435v.957h-.478v.957h2.871v.957h-1.914v.957h1.914v.957h-1.914v.957h1.914v.957h-3.349v.957h2.392v.957h-.957v.957h.957v.957h-.957v.957h.957v.957h-1.435v.957H231.31a.478.478,0,0,0,.478-.478V53.052h.478a.478.478,0,0,0,.478-.478V46.832a.478.478,0,0,0-.478-.478Zm-.478,1.914h-3.828V47.31h3.828ZM227,54.966h3.828v.957H227Zm.957-5.741h3.828v.957h-3.828Zm-2.392-2.871V45.4H229.4v.957ZM229.4,44.44h-3.828v-.957H229.4Zm0-1.914h-3.828v-.957H229.4Zm1.435-6.7v.957H227v-.957ZM227,37.741h3.828V38.7H227Zm0,2.871v-.957h3.828v.957Zm.957-7.177v-.478h2.871v.478a1.437,1.437,0,0,1-1.435,1.435h-1.915A2.38,2.38,0,0,0,227.961,33.435Zm-1.914,2.392v4.785h-2.871V35.828Zm-7.655,0h3.828v.957h-2.871v.957h2.871V38.7h-2.871v.957h2.871v.957h-3.828Zm3.349,5.741h2.871v4.785h-2.871Zm2.392,5.741H227v4.785h-2.871Zm-.957,5.741h2.871v4.785h-2.871ZM227,57.836v-.957h3.828v.957Zm3.828-3.828H227v-.957h3.828Zm-2.871-1.914v-.957h3.828v.957Z" transform="translate(-188.039 0)"/></g></svg>