<svg xmlns="http://www.w3.org/2000/svg" width="26.766" height="24.981" viewBox="0 0 26.766 24.981"><defs><style>.a{fill:#0c1a4a;}</style></defs><g transform="translate(-2 -6)"><path class="a" d="M25.71,41.74a1.787,1.787,0,0,0-2.436-.656L18.925,43.6a1.776,1.776,0,0,0-1.008-.727l-6.656-1.78A3.1,3.1,0,0,0,9.7,41.075l-2.342.584v-.321a.446.446,0,0,0-.446-.446H5.569v-.446A.446.446,0,0,0,5.123,40H2.446A.446.446,0,0,0,2,40.446v8.922a.446.446,0,0,0,.446.446H5.123a.446.446,0,0,0,.446-.446v-.446H6.907a.446.446,0,0,0,.446-.446v-.17l.575.285a3.136,3.136,0,0,0,1.4.33H16a3.091,3.091,0,0,0,1.561-.419l7.494-4.327A1.788,1.788,0,0,0,25.71,41.74ZM4.677,48.922H2.892v-8.03H4.677Zm1.784-.892H5.569V41.784h.892ZM24.612,43.4l-7.494,4.327a2.222,2.222,0,0,1-1.115.3H9.325a2.211,2.211,0,0,1-1-.236l-.972-.486V42.578l2.556-.638a2.214,2.214,0,0,1,1.12.009l6.656,1.784a.888.888,0,0,1,.214,1.633.87.87,0,0,1-.674.089L11.9,44.028a.448.448,0,1,0-.232.865l5.322,1.423a1.817,1.817,0,0,0,.464.062,1.747,1.747,0,0,0,.888-.241,1.773,1.773,0,0,0,.834-1.084,1.837,1.837,0,0,0,.049-.6L23.72,41.86a.9.9,0,0,1,1.213.326A.892.892,0,0,1,24.612,43.4Z" transform="translate(0 -18.833)"/><path class="a" d="M31.814,6H29.137a.446.446,0,0,0-.446.446v.446H27.353a.446.446,0,0,0-.446.446v.17l-.575-.29a3.2,3.2,0,0,0-1.4-.326H18.257a3.157,3.157,0,0,0-1.561.415L9.2,11.639a1.785,1.785,0,1,0,1.784,3.091l.709-.41a4.84,4.84,0,0,0-.4,1.941,4.907,4.907,0,1,0,8.685-3.123h.428l.428.714a3.139,3.139,0,0,0,2.681,1.517h.5a3.1,3.1,0,0,0,2.186-.892h.709a.446.446,0,0,0,.446.446h1.338v.446a.446.446,0,0,0,.446.446h2.677a.446.446,0,0,0,.446-.446V6.446A.446.446,0,0,0,31.814,6Zm-11.6,10.26A4.015,4.015,0,1,1,16.847,12.3a1.6,1.6,0,0,0,1.432.834h.433a4.032,4.032,0,0,1,1.5,3.123Zm6.691-2.677h-.892a.461.461,0,0,0-.317.129l-.107.112a2.22,2.22,0,0,1-1.579.651h-.5A2.241,2.241,0,0,1,21.6,13.392l-.558-.928a.442.442,0,0,0-.384-.219H18.279A.778.778,0,0,1,17.717,12a.617.617,0,0,1-.178-.464.673.673,0,0,1,.669-.629h4.238a.446.446,0,0,0,0-.892H18.208a1.541,1.541,0,0,0-1.543,1.361c-.156-.013-.308-.022-.464-.022a4.9,4.9,0,0,0-3.158,1.155l-2.5,1.445a.9.9,0,0,1-1.213-.326.892.892,0,0,1,.321-1.218l7.494-4.327a2.234,2.234,0,0,1,1.115-.3h6.678a2.309,2.309,0,0,1,1,.232l.972.491Zm1.784.446H27.8V7.784h.892Zm2.677.892H29.583V6.892h1.784Z" transform="translate(-3.494)"/><path class="a" d="M23.338,23.784h.892a.446.446,0,0,1,.446.446.446.446,0,1,0,.892,0,1.338,1.338,0,0,0-1.338-1.338v-.446a.446.446,0,1,0-.892,0v.446a1.338,1.338,0,1,0,0,2.677h.892a.446.446,0,0,1,0,.892h-.892a.446.446,0,0,1-.446-.446.446.446,0,1,0-.892,0,1.338,1.338,0,0,0,1.338,1.338V27.8a.446.446,0,1,0,.892,0v-.446a1.338,1.338,0,1,0,0-2.677h-.892a.446.446,0,1,1,0-.892Z" transform="translate(-11.078 -8.863)"/></g></svg>