<svg xmlns="http://www.w3.org/2000/svg" width="34.938" height="34.938" viewBox="0 0 34.938 34.938"><defs><style>.a{fill:#0070ba;}</style></defs><g transform="translate(9.462 29.115)"><path class="a" d="M11.6,25.823a5.1,5.1,0,0,1-5.1-5.1.728.728,0,0,1,1.456,0,3.639,3.639,0,1,0,7.279,0,.728.728,0,0,1,1.456,0A5.1,5.1,0,0,1,11.6,25.823Z" transform="translate(-6.5 -20)"/></g><g transform="translate(0 4.572)"><path class="a" d="M26.932,29.14H2.184A2.184,2.184,0,0,1,.764,25.3a.684.684,0,0,1,.093-.067,10.157,10.157,0,0,0,3.51-7.678V13.126a10.231,10.231,0,0,1,8.091-9.97.728.728,0,1,1,.3,1.425,8.767,8.767,0,0,0-6.934,8.545v4.426a11.606,11.606,0,0,1-4.1,8.852.738.738,0,0,1-.067.051.727.727,0,0,0,.527,1.229H26.932a.728.728,0,0,0,.527-1.23.667.667,0,0,1-.064-.048,11.56,11.56,0,0,1-3.153-4.254.728.728,0,1,1,1.333-.585,10.161,10.161,0,0,0,2.686,3.663.571.571,0,0,1,.09.066,2.185,2.185,0,0,1-1.419,3.845Z" transform="translate(0 -3.141)"/></g><g transform="translate(16.013)"><path class="a" d="M20.462,18.925a9.462,9.462,0,1,1,9.462-9.462A9.473,9.473,0,0,1,20.462,18.925Zm0-17.469a8.007,8.007,0,1,0,8.007,8.007A8.015,8.015,0,0,0,20.462,1.456Z" transform="translate(-11)"/></g><g transform="translate(22.564 5.095)"><path class="a" d="M20.6,12.235H16.228a.728.728,0,0,1-.728-.728V10.415a3.279,3.279,0,0,1,3.275-3.275,1.092,1.092,0,1,0,0-2.184H16.228a.728.728,0,0,1,0-1.456h2.548a2.548,2.548,0,1,1,0,5.1,1.822,1.822,0,0,0-1.82,1.82v.364H20.6a.728.728,0,1,1,0,1.456Z" transform="translate(-15.5 -3.5)"/></g></svg>