<svg xmlns="http://www.w3.org/2000/svg" width="26.785" height="27.914" viewBox="0 0 26.785 27.914"><defs><style>.a{fill:#0c1a4a;}</style></defs><g transform="translate(-10.359 0.002)"><g transform="translate(10.359 -0.002)"><g transform="translate(0 0)"><path class="a" d="M35.852,14.317a.818.818,0,0,1,0-.723l1.041-2.13a2.423,2.423,0,0,0-1.046-3.218L33.754,7.135a.818.818,0,0,1-.425-.585l-.41-2.335a2.423,2.423,0,0,0-2.737-1.989l-2.347.332a.818.818,0,0,1-.688-.223L25.443.686a2.423,2.423,0,0,0-3.384,0l-1.7,1.648a.818.818,0,0,1-.688.223l-2.347-.332a2.423,2.423,0,0,0-2.737,1.989l-.41,2.335a.818.818,0,0,1-.425.585L11.655,8.246a2.423,2.423,0,0,0-1.046,3.218l1.041,2.13a.818.818,0,0,1,0,.723l-1.041,2.13a2.423,2.423,0,0,0,1.046,3.218l2.094,1.111a.818.818,0,0,1,.425.585l.41,2.335a2.422,2.422,0,0,0,2.389,2.013,2.489,2.489,0,0,0,.349-.025l2.347-.332a.818.818,0,0,1,.688.223l1.7,1.648a2.423,2.423,0,0,0,3.383,0l1.7-1.648a.819.819,0,0,1,.688-.223l2.347.332A2.423,2.423,0,0,0,32.919,23.7l.41-2.335a.818.818,0,0,1,.425-.585l2.094-1.111a2.423,2.423,0,0,0,1.046-3.218Zm-.759,3.925L33,19.353a2.418,2.418,0,0,0-1.256,1.729l-.41,2.335a.82.82,0,0,1-.926.673l-2.347-.332a2.417,2.417,0,0,0-2.033.66l-1.7,1.648a.82.82,0,0,1-1.145,0l-1.7-1.648a2.415,2.415,0,0,0-1.686-.685,2.471,2.471,0,0,0-.346.024L17.1,24.09a.82.82,0,0,1-.926-.673l-.41-2.335A2.418,2.418,0,0,0,14.5,19.353l-2.094-1.111a.82.82,0,0,1-.354-1.089l1.041-2.13a2.418,2.418,0,0,0,0-2.137l-1.041-2.13a.82.82,0,0,1,.354-1.089L14.5,8.557A2.418,2.418,0,0,0,15.76,6.828l.41-2.335A.82.82,0,0,1,17.1,3.82l2.347.332a2.418,2.418,0,0,0,2.033-.66l1.7-1.648a.82.82,0,0,1,1.145,0l1.7,1.648a2.417,2.417,0,0,0,2.033.66l2.347-.332a.82.82,0,0,1,.926.673l.41,2.335A2.418,2.418,0,0,0,33,8.557l2.094,1.111a.82.82,0,0,1,.354,1.089l-1.041,2.13a2.418,2.418,0,0,0,0,2.137l1.041,2.13A.82.82,0,0,1,35.093,18.242Z" transform="translate(-10.359 0.002)"/></g></g><g transform="translate(17.634 7.838)"><path class="a" d="M155.791,144.027a.8.8,0,0,0-1.138,0l-10.625,10.625a.8.8,0,1,0,1.138,1.138l10.625-10.625A.8.8,0,0,0,155.791,144.027Z" transform="translate(-143.791 -143.791)"/></g><g transform="translate(17.58 6.71)"><path class="a" d="M145.754,123.116a2.952,2.952,0,1,0,2.952,2.952A2.955,2.955,0,0,0,145.754,123.116Zm0,4.293a1.342,1.342,0,1,1,1.342-1.342A1.343,1.343,0,0,1,145.754,127.409Z" transform="translate(-142.802 -123.116)"/></g><g transform="translate(24.02 15.297)"><path class="a" d="M263.874,280.61a2.952,2.952,0,1,0,2.952,2.952A2.955,2.955,0,0,0,263.874,280.61Zm0,4.293a1.342,1.342,0,1,1,1.342-1.342A1.343,1.343,0,0,1,263.874,284.9Z" transform="translate(-260.922 -280.61)"/></g></g></svg>