<svg xmlns="http://www.w3.org/2000/svg" width="186.156" height="47.573" viewBox="0 0 186.156 47.573"><defs><style>.a{fill:#139ad6;}.b{fill:#263b80;}.c{fill:#232c65;}</style></defs><g transform="translate(0 -187.6)"><path class="a" d="M362.861,221.2H352.814a1.963,1.963,0,0,0-1.477,1.182l-4.137,26a.784.784,0,0,0,.886.886h5.319a.784.784,0,0,0,.886-.886L355.474,241a1.352,1.352,0,0,1,1.477-1.182h3.25q10.194,0,11.524-9.751a7.745,7.745,0,0,0-1.182-6.5,11.918,11.918,0,0,0-7.683-2.364m1.182,9.751c-.591,3.546-3.25,3.546-5.91,3.546H356.36l1.182-6.8c0-.3.3-.591.886-.591h.591c1.773,0,3.546,0,4.432,1.182.591.3.591,1.182.591,2.659" transform="translate(-218.959 -21.19)"/><g transform="translate(55.847 200.01)"><path class="b" d="M166.861,221.2H156.814a1.963,1.963,0,0,0-1.477,1.182l-4.137,26a.784.784,0,0,0,.886.886h4.728a1.963,1.963,0,0,0,1.477-1.182L159.474,241a1.352,1.352,0,0,1,1.477-1.182h3.25q10.194,0,11.524-9.751a7.745,7.745,0,0,0-1.182-6.5c-1.773-1.477-4.137-2.364-7.683-2.364m1.182,9.751c-.591,3.546-3.25,3.546-5.91,3.546h-1.477l1.182-6.8c0-.3.3-.591.886-.591h.591c1.773,0,3.546,0,4.432,1.182a3.165,3.165,0,0,1,.3,2.659" transform="translate(-151.2 -221.2)"/><path class="b" d="M236.836,245.791h-4.728c-.3,0-.886.3-.886.591l-.3,1.477-.3-.591c-1.182-1.477-3.25-2.068-5.614-2.068a11.354,11.354,0,0,0-10.933,9.751,8.807,8.807,0,0,0,1.773,7.387c1.477,1.773,3.546,2.364,6.205,2.364a9.445,9.445,0,0,0,6.8-2.659l-.3,1.477a.784.784,0,0,0,.886.886h4.432a1.963,1.963,0,0,0,1.477-1.182l2.659-16.547c-.3-.3-.886-.886-1.182-.886m-6.8,9.456a5.715,5.715,0,0,1-5.614,4.728,4.725,4.725,0,0,1-3.25-1.182,6.3,6.3,0,0,1-.886-3.546,5.27,5.27,0,0,1,8.569-3.546,5.159,5.159,0,0,1,1.182,3.546" transform="translate(-190.741 -236.335)"/></g><path class="a" d="M432.036,245.791h-4.728c-.3,0-.886.3-.886.591l-.3,1.477-.3-.591c-1.182-1.477-3.25-2.068-5.614-2.068a11.354,11.354,0,0,0-10.933,9.751,8.807,8.807,0,0,0,1.773,7.387c1.477,1.773,3.546,2.364,6.205,2.364a9.445,9.445,0,0,0,6.8-2.659l-.3,1.477a.784.784,0,0,0,.886.886h4.432a1.963,1.963,0,0,0,1.477-1.182l2.659-16.547c-.3-.3-.591-.886-1.182-.886m-6.8,9.456a5.715,5.715,0,0,1-5.614,4.728,4.725,4.725,0,0,1-3.25-1.182,6.3,6.3,0,0,1-.886-3.546,5.27,5.27,0,0,1,8.569-3.546,3.391,3.391,0,0,1,1.182,3.546" transform="translate(-257.995 -36.325)"/><path class="b" d="M306.752,246.8h-5.023a1.535,1.535,0,0,0-1.182.591l-6.5,10.047-2.955-9.456a1.365,1.365,0,0,0-1.477-.886h-4.728c-.591,0-.886.591-.886,1.182l5.319,15.661L284.3,271.03c-.3.591,0,1.477.591,1.477h4.728a1.535,1.535,0,0,0,1.182-.591l16.252-23.343c.886-.886.3-1.773-.3-1.773" transform="translate(-179.102 -37.334)"/><path class="a" d="M479.337,222.393,475.2,248.987a.784.784,0,0,0,.886.886h4.137a1.963,1.963,0,0,0,1.477-1.182l4.137-26a.784.784,0,0,0-.886-.886h-4.728c-.3-.3-.591,0-.886.591" transform="translate(-299.681 -21.496)"/><path class="b" d="M33.981,191.146c-2.068-2.364-5.91-3.546-11.228-3.546H7.978a2.535,2.535,0,0,0-2.068,1.773L0,228.082a1.352,1.352,0,0,0,1.182,1.477h9.16l2.364-14.479v.591a2.535,2.535,0,0,1,2.068-1.773h4.432c8.569,0,15.07-3.546,17.138-13.3v-.886h0c.3-3.841-.3-6.205-2.364-8.569" transform="translate(0 0)"/><path class="a" d="M52.194,220.4h0v.886c-2.068,10.047-8.569,13.3-17.138,13.3H30.623a2.535,2.535,0,0,0-2.068,1.773L25.6,254.381a1.082,1.082,0,0,0,1.182,1.182h7.683a1.655,1.655,0,0,0,1.773-1.477v-.3l1.477-9.16v-.591a1.655,1.655,0,0,1,1.773-1.477H40.67c7.387,0,13.3-2.955,14.774-11.819.591-3.546.3-6.8-1.477-8.865a3.026,3.026,0,0,0-1.773-1.477" transform="translate(-16.144 -20.685)"/><path class="c" d="M55.675,216.486c-.3,0-.591-.3-.886-.3a1.085,1.085,0,0,1-.886-.3,15.611,15.611,0,0,0-3.841-.3H38.537a1.086,1.086,0,0,0-.886.3,1.625,1.625,0,0,0-.886,1.477L34.4,232.738v.591a2.535,2.535,0,0,1,2.068-1.773H40.9c8.569,0,15.07-3.546,17.138-13.3a1.086,1.086,0,0,1,.3-.886c-.591-.3-.886-.591-1.477-.591-.886-.3-.886-.3-1.182-.3" transform="translate(-21.694 -17.658)"/></g></svg>