<svg xmlns="http://www.w3.org/2000/svg" width="48" height="48" viewBox="0 0 48 48"><defs><style>.a{fill:#fff;stroke:#707070;}.b{fill:#03a9f4;}.c{fill:#283593;}.d{stroke:none;}.e{fill:none;}</style></defs><g transform="translate(-2842 -1308)"><g class="a" transform="translate(2842 1308)"><circle class="d" cx="24" cy="24" r="24"/><circle class="e" cx="24" cy="24" r="23.5"/></g><g transform="translate(2854.248 1318.254)"><path class="b" d="M150.209,116.342a.566.566,0,0,0-.85.427c-.02.186-.052.372-.092.567-1.11,5.037-3.339,7.487-6.816,7.487h-5.1a.567.567,0,0,0-.554.453l-1.7,7.972-.3,2.029a1.7,1.7,0,0,0,1.663,2.017h3.413a1.693,1.693,0,0,0,1.65-1.291l1.379-5.511h2.958c3.491,0,5.9-2.783,6.794-7.838h0A5.925,5.925,0,0,0,150.209,116.342Z" transform="translate(-129.592 -110.085)"/><path class="c" d="M57.061,2.021A5.966,5.966,0,0,0,52.64,0H43.252a2.82,2.82,0,0,0-2.8,2.41L37.532,21.856a1.7,1.7,0,0,0,1.684,1.954H43.57a.567.567,0,0,0,.554-.453l1.6-7.483h4.648c4.034,0,6.7-2.82,7.924-8.39a6.676,6.676,0,0,0,.113-.672A5.854,5.854,0,0,0,57.061,2.021Z" transform="translate(-37.513 0)"/></g></g></svg>