<svg xmlns="http://www.w3.org/2000/svg" width="393" height="255" viewBox="0 0 393 255"><defs><style>.a{fill:#fa9750;stroke:#bababa;}.b,.c,.d{fill:#fff;}.b{font-size:16px;font-family:Bahnschrift;font-weight:700;}.d{font-size:14px;font-family:Roboto-Regular, Roboto;}.e{stroke:none;}.f{fill:none;}</style></defs><g transform="translate(-1402 -689)"><g class="a" transform="translate(1402 689)"><rect class="e" width="393" height="255" rx="33"/><rect class="f" x="0.5" y="0.5" width="392" height="254" rx="32.5"/></g><text class="b" transform="translate(1598 844)"><tspan x="-170.949" y="0">See when payments come in, and when they go </tspan><tspan x="-145.512" y="22">out. You will find your recent 2PayUBack </tspan><tspan x="-45.527" y="44">activity here.</tspan></text><g transform="translate(1563.282 714.506)"><g transform="translate(35.259 17.733)"><path class="c" d="M252.748,146.015l-10.658-7.993V121.74a2.96,2.96,0,1,0-5.921,0V139.5a2.954,2.954,0,0,0,1.184,2.368l11.842,8.881a2.961,2.961,0,0,0,3.553-4.737Z" transform="translate(-236.169 -118.779)"/></g><path class="c" d="M38.219,0A38.219,38.219,0,1,0,76.438,38.219,38.261,38.261,0,0,0,38.219,0Zm0,70.518a32.3,32.3,0,1,1,32.3-32.3A32.338,32.338,0,0,1,38.219,70.518Z"/></g><g transform="translate(1688.603 710.795)"><text class="d" transform="translate(33.397 12.205)"><tspan x="0" y="0">View All</tspan></text><g transform="translate(0 0)"><g transform="translate(0)"><g transform="translate(0 0)"><path class="c" d="M22.711,99.674c-.2-.279-5.069-6.839-11.283-6.839S.349,99.4.145,99.674a.754.754,0,0,0,0,.889c.2.279,5.069,6.839,11.283,6.839s11.079-6.56,11.283-6.839A.753.753,0,0,0,22.711,99.674ZM11.428,105.9c-4.577,0-8.541-4.354-9.715-5.777,1.172-1.425,5.128-5.776,9.715-5.776s8.541,4.353,9.715,5.777C19.971,101.544,16.015,105.9,11.428,105.9Z" transform="translate(0 -92.835)"/></g></g><g transform="translate(6.907 2.763)"><g transform="translate(0 0)"><path class="c" d="M159.243,154.725a4.521,4.521,0,1,0,4.521,4.521A4.526,4.526,0,0,0,159.243,154.725Zm0,7.535a3.014,3.014,0,1,1,3.014-3.014A3.017,3.017,0,0,1,159.243,162.26Z" transform="translate(-154.722 -154.725)"/></g></g></g></g></g></svg>