<svg xmlns="http://www.w3.org/2000/svg" width="36" height="50" viewBox="0 0 50 50"><defs><style>.a{fill:#0070ba;}.b{fill:#fff;}</style></defs><g transform="translate(-0.307)"><circle class="a" cx="25" cy="25" r="25" transform="translate(0.307)"/><g transform="translate(13.214 13.444)"><path class="b" d="M3.418,9.77a.508.508,0,0,0,.856,0L7.613,4.546a.508.508,0,0,0-.428-.782H5.867V.508A.508.508,0,0,0,5.359,0H2.334a.508.508,0,0,0-.508.508V3.764H.508a.508.508,0,0,0-.428.782ZM2.334,4.78a.508.508,0,0,0,.508-.508V1.016H4.851V4.272a.508.508,0,0,0,.508.508h.9L3.846,8.553,1.436,4.78h.9Z" transform="matrix(1, 0.017, -0.017, 1, 8.895, 15.898)"/><path class="b" d="M45.556,230.741H25.208a1.635,1.635,0,0,0-1.634,1.634V243.4a1.635,1.635,0,0,0,1.634,1.634H45.556a1.635,1.635,0,0,0,1.634-1.634V232.375A1.635,1.635,0,0,0,45.556,230.741Zm.617,12.655a.618.618,0,0,1-.617.618H25.208a.618.618,0,0,1-.617-.618V232.375a.618.618,0,0,1,.617-.617H45.556a.618.618,0,0,1,.617.617Z" transform="translate(-23.574 -230.741)"/><path class="b" d="M90.165,280.673a1.257,1.257,0,0,1-1.261-1.249q0-.036,0-.071a.508.508,0,0,0-.507-.537H74.251a.508.508,0,0,0-.507.537q0,.036,0,.071a1.257,1.257,0,0,1-1.261,1.249.508.508,0,0,0-.508.508v4.773a.508.508,0,0,0,.508.508,1.257,1.257,0,0,1,1.261,1.249.508.508,0,0,0,.508.508H88.4a.508.508,0,0,0,.508-.508,1.257,1.257,0,0,1,1.261-1.249.508.508,0,0,0,.508-.508v-4.773A.508.508,0,0,0,90.165,280.673Zm-.508,4.83a2.279,2.279,0,0,0-1.712,1.7H74.7a2.279,2.279,0,0,0-1.712-1.7v-3.87a2.278,2.278,0,0,0,1.732-1.8h13.2a2.278,2.278,0,0,0,1.732,1.8Z" transform="translate(-69.517 -276.374)"/><path class="b" d="M199.94,312.311a3,3,0,1,0,3,3A3,3,0,0,0,199.94,312.311Zm0,4.985a1.984,1.984,0,1,1,1.984-1.984A1.987,1.987,0,0,1,199.94,317.3Z" transform="translate(-188.133 -308.167)"/></g></g></svg>