<svg xmlns="http://www.w3.org/2000/svg" width="36.938" height="36.938" viewBox="0 0 36.938 36.938"><defs><style>.a{fill:#0070ba;}</style></defs><g transform="translate(0 0)"><path class="a" d="M20.193,36.938H16.745a2.305,2.305,0,0,1-2.287-2.032l-.368-2.887a14.544,14.544,0,0,1-2.115-.876l-2.3,1.787a2.3,2.3,0,0,1-3.055-.194L4.2,30.312a2.29,2.29,0,0,1-.188-3.046l1.787-2.3a14.21,14.21,0,0,1-.876-2.115l-2.893-.368A2.31,2.31,0,0,1,0,20.193V16.745a2.305,2.305,0,0,1,2.032-2.287l2.887-.368a14.544,14.544,0,0,1,.876-2.115l-1.785-2.3A2.3,2.3,0,0,1,4.2,6.62L6.629,4.2a2.291,2.291,0,0,1,3.046-.188l2.3,1.788A14.492,14.492,0,0,1,14.09,4.92l.368-2.893A2.3,2.3,0,0,1,16.745,0h3.448A2.305,2.305,0,0,1,22.48,2.032l.368,2.887a14.492,14.492,0,0,1,2.116.876l2.3-1.787a2.294,2.294,0,0,1,3.055.2l2.424,2.424a2.29,2.29,0,0,1,.188,3.046l-1.787,2.3a14.21,14.21,0,0,1,.876,2.115l2.893.368a2.308,2.308,0,0,1,2.025,2.289v3.448a2.305,2.305,0,0,1-2.032,2.287l-2.887.368a14.545,14.545,0,0,1-.876,2.115l1.787,2.3a2.293,2.293,0,0,1-.2,3.055l-2.424,2.424a2.288,2.288,0,0,1-3.046.188l-2.3-1.787a14.209,14.209,0,0,1-2.115.876l-.368,2.893a2.308,2.308,0,0,1-2.289,2.027Zm-8.3-7.48a.78.78,0,0,1,.376.1A12.918,12.918,0,0,0,15,30.688a.768.768,0,0,1,.551.642l.431,3.386a.778.778,0,0,0,.76.683h3.448a.775.775,0,0,0,.759-.676l.432-3.392a.768.768,0,0,1,.551-.642,12.918,12.918,0,0,0,2.73-1.133.768.768,0,0,1,.847.065l2.693,2.093a.757.757,0,0,0,1.008-.052l2.439-2.439a.761.761,0,0,0,.06-1.016L29.62,25.514a.768.768,0,0,1-.065-.846,12.918,12.918,0,0,0,1.133-2.73.768.768,0,0,1,.642-.551l3.386-.431a.781.781,0,0,0,.683-.762V16.745a.775.775,0,0,0-.676-.759l-3.392-.432A.768.768,0,0,1,30.69,15a12.918,12.918,0,0,0-1.133-2.73.765.765,0,0,1,.065-.847l2.093-2.693a.755.755,0,0,0-.051-1.007L29.224,5.287a.758.758,0,0,0-1.016-.06L25.515,7.32a.771.771,0,0,1-.848.065,12.865,12.865,0,0,0-2.73-1.133.768.768,0,0,1-.551-.642l-.431-3.386a.781.781,0,0,0-.762-.685H16.745a.775.775,0,0,0-.759.676l-.432,3.392A.772.772,0,0,1,15,6.25a12.861,12.861,0,0,0-2.73,1.131.771.771,0,0,1-.848-.063L8.731,5.225a.755.755,0,0,0-1.007.051L5.285,7.717a.761.761,0,0,0-.06,1.016l2.093,2.693a.768.768,0,0,1,.065.847A12.838,12.838,0,0,0,6.25,15a.768.768,0,0,1-.642.551l-3.386.431a.778.778,0,0,0-.683.76v3.448a.775.775,0,0,0,.676.759l3.392.432a.768.768,0,0,1,.642.551,12.918,12.918,0,0,0,1.133,2.73.765.765,0,0,1-.065.847L5.224,28.205a.755.755,0,0,0,.051,1.007l2.439,2.439a.761.761,0,0,0,1.016.06l2.693-2.093a.793.793,0,0,1,.474-.16Z" transform="translate(0 0)"/></g><g transform="translate(10.774 10.774)"><path class="a" d="M14.7,22.391a7.7,7.7,0,1,1,7.7-7.7A7.7,7.7,0,0,1,14.7,22.391Zm0-13.852A6.156,6.156,0,1,0,20.852,14.7,6.163,6.163,0,0,0,14.7,8.539Z" transform="translate(-7 -7)"/></g></svg>