<svg xmlns="http://www.w3.org/2000/svg" width="60" height="60" viewBox="0 0 60 60"><defs><style>.a{fill:#75cf59;}.b{fill:#fff;}</style></defs><g transform="translate(-5.005 -4.479)"><g transform="translate(5.006 4.479)"><circle class="a" cx="30" cy="30" r="30" transform="translate(0)"/><g transform="translate(19.2 21.6)"><path class="b" d="M19.879,12.626,7.5,25a.279.279,0,0,1-.394,0L.081,17.975a.279.279,0,0,1,0-.394l1.708-1.708a.279.279,0,0,1,.394,0L7.306,21,17.778,10.524a.279.279,0,0,1,.394,0l1.707,1.708A.279.279,0,0,1,19.879,12.626Z" transform="translate(0 -10.443)"/></g></g></g></svg>