<svg xmlns="http://www.w3.org/2000/svg" width="265" height="284" viewBox="0 0 265 284"><defs><style>.a{fill:#fff;stroke:#bababa;}.b,.c,.f,.g{fill:#0c1a4a;font-family:Roboto-Bold, Roboto;font-weight:700;}.b{font-size:11px;}.c{font-size:10px;}.d{fill:#f7bf53;}.e{fill:#1861d1;}.f{font-size:7px;}.g{font-size:8px;}.h{stroke:none;}.i{fill:none;}</style></defs><g transform="translate(-13301 -451)"><g class="a" transform="translate(13301 451)"><rect class="h" width="265" height="284" rx="35"/><rect class="i" x="0.5" y="0.5" width="264" height="283" rx="34.5"/></g><text class="b" transform="translate(13322 488)"><tspan x="0" y="0">Analytics</tspan></text><text class="c" transform="translate(13464 490)"><tspan x="0" y="0">Last 7 Days</tspan></text><g transform="translate(13333 528.961)"><rect class="d" width="4" height="43" rx="2" transform="translate(0 86.039)"/><rect class="e" width="4" height="36" rx="2" transform="translate(35 76.039)"/><rect class="e" width="4" height="49" rx="2" transform="translate(98 52.039)"/><rect class="e" width="4" height="27" rx="2" transform="translate(66 101.039)"/><rect class="d" width="5" height="28" rx="2.5" transform="translate(132 50.039)"/><rect class="d" width="4" height="32" rx="2" transform="translate(198 27.039)"/><rect class="d" width="5" height="36" rx="2.5" transform="translate(164 4.039)"/><rect class="d" width="4" height="33" rx="2" transform="translate(35 37.039)"/><rect class="e" width="5" height="32" rx="2.5" transform="translate(132 9.039)"/><rect class="d" width="5" height="30" rx="2.5" transform="translate(164 67.039)"/><rect class="e" width="4" height="26" rx="2" transform="translate(198 71.039)"/><rect class="e" width="4" height="70" rx="2" transform="translate(66 0.039)"/><rect class="d" width="4" height="9" rx="2" transform="translate(35 119.039)"/><rect class="d" width="5" height="11" rx="2.5" transform="translate(132 86.039)"/><rect class="d" width="5" height="15" rx="2.5" transform="translate(164 46.039)"/><rect class="d" width="4" height="23" rx="2" transform="translate(198 105.039)"/><rect class="d" width="4" height="18" rx="2" transform="translate(66 76.039)"/></g><g transform="translate(13329 691.565)"><text class="f" transform="translate(0 6.435)"><tspan x="0" y="0">SAT</tspan></text><text class="f" transform="translate(33 6.435)"><tspan x="0" y="0">SUN</tspan></text><text class="f" transform="translate(64 6.435)"><tspan x="0" y="0">MON</tspan></text><text class="f" transform="translate(99 6.435)"><tspan x="0" y="0">TUE</tspan></text><text class="f" transform="translate(131 6.435)"><tspan x="0" y="0">WEN</tspan></text><text class="f" transform="translate(164 6.435)"><tspan x="0" y="0">THR</tspan></text><text class="f" transform="translate(198 6.435)"><tspan x="0" y="0">FRI</tspan></text></g><text class="g" transform="translate(13397 718)"><tspan x="0" y="0">Money sent</tspan></text><text class="g" transform="translate(13461 718)"><tspan x="0" y="0">Money paid</tspan></text></g></svg>